<?xml version="1.0" encoding="utf-8"?>
<!-- Generator: Adobe Illustrator 22.0.1, SVG Export Plug-In . SVG Version: 6.00 Build 0)  -->
<svg version="1.1" id="Copy_of_logo5_xA0_Image_1_" xmlns="http://www.w3.org/2000/svg" xmlns:xlink="http://www.w3.org/1999/xlink"
	 x="0px" y="0px" viewBox="0 0 962 867" style="enable-background:new 0 0 962 867;" xml:space="preserve">
<style type="text/css">
	.st0{fill-rule:evenodd;clip-rule:evenodd;fill:#FFFFFF;}
	.st1{fill-rule:evenodd;clip-rule:evenodd;}
</style>
<image style="display:none;overflow:visible;" width="962" height="867" id="Copy_of_logo5_xA0_Image_2_" xlink:href="1ECC87D4.png" >
</image>
<g>
	<g>
		<path class="st0" d="M1,0c320.3,0,640.7,0,961,0c0,289,0,578,0,867c-320.7,0-641.3,0-962,0C0,579,0,291,0,3C-0.1,1.6-0.2,0.2,1,0z
			 M601,111c-8.3-1.4-21.5-10.7-31-16c-30.1-16.8-63.1-37.4-92-53c0.6-1.3-4.2,0.1-4,0c-24,14.2-53,35.6-80,52
			c-8.5,5.1-20.7,14.9-28,16c-9.2,1.4-20.3-4.8-30-3c-6.5,1.2-20.3,14.3-28,20c-48,35.7-96.7,66.9-147,96
			c-20.5,11.9-42.3,21.6-61,36c0.3,8.4,1.5,15.8,3,23c3.9,4.1,12.5,3.5,16,8c1.3,13.5,0.5,23.4,2,36c-5.7,1.3-10.9,3.1-14,7
			c-0.8,9.8,1.2,16.8,1,26c3.5,3.8,9.7,5,15,7c6,76.2-2.3,164.9-11,234c-1.3,10-5.2,24.1-4,28c1,3.3,28.2,18.3,31,20
			c77,47.3,146.6,97,211,153c85.3-10.1,187.3-9,274-2c49.6-54.5,101.9-108.4,159-157c7.5-6.4,22.3-15.2,24-22c1.8-7.1-1.9-20.3-3-31
			c-7.6-73.3-10.4-151-8-228c7.7,1,11.4-1.9,15-5c4-14.4-2.1-26.2-13-29c0.4-10.6,0.4-20.6,1-33c16.5,0.5,18.9-13.1,18-30
			c-62.9-48.7-122.5-100.8-179-156C625.3,107.1,613.3,113.1,601,111z"/>
		<path class="st0" d="M570,112c-53.5,1.9-117.4,1.2-174,0c27-18,54.6-35.4,82-53C508.2,77.1,538.3,95.4,570,112z"/>
		<path class="st0" d="M628,123c-0.6,7.8,1.2,17.9-1,24c-89.4,4.9-190.2,4.7-280-1c0.1-7.4-2.3-17.7-1-23
			C436.5,129.6,537.9,131.5,628,123z"/>
		<path class="st0" d="M366,169c79.1,3.8,160.3,5,240,1c-1.6,27.7-3.7,54.9-4,84c-75.1,2-159.6,4.3-233-1C366.6,227,367,193,366,169
			z"/>
		<path class="st0" d="M351,174c3.7,24.3,2.7,53.3,5,79c-4,0-8,0-12,0c-66.7,25.7-136.7,48-208,69c-0.9-12.4-3.1-23.6-3-37
			C210.9,253.2,281.7,214.3,351,174z"/>
		<path class="st0" d="M618,176c54.1,40.2,108.5,80.2,168,115c-2,9.3-1.2,21.4-3,31c-38.8-15.7-77.6-32.6-117-51
			c-16.7-7.8-30.3-19.3-51-17C614.7,226.7,617.8,202.8,618,176z"/>
		<path class="st0" d="M354,268c87.8,2.6,182.1,2.4,266,1c7.1,17.9-23.9,11.4-39,12c-65.5,2.6-160.2,0.6-228,0c0-3.3,0-6.7,0-10
			C352.9,269.6,352.8,268.2,354,268z"/>
		<path class="st0" d="M339,271c2.3,2.1,0,8.6,2,11c-71,22.3-143.8,48.2-218,64c2.9-8.6,16.8-8.6,25-11c62-18.3,129.2-40.5,189-63
			C338.2,272.2,338.8,271.8,339,271z"/>
		<path class="st0" d="M371,298c74.5,2.8,154.5,2.7,229,0c-4.1,163.3,0.9,331.5,14,484c-80.1-6.3-174.1-6-256,1
			c11.6-152.4,17.9-318.5,12-482C369.9,299.6,369.8,298.2,371,298z M391,342c-5.7,4.2-2.5,25.1-2,36c1.8,40.6-3.4,81.7,0,115
			c22.1,5,60.4,2.3,85,0c4.1-46.8,2.1-104.8-1-151C447.3,341.6,415.1,337.4,391,342z M491,343c-1.8,23.5-1,49.9-1,76
			c0,26.2-2.4,53.3,3,75c25.9-0.1,61.1,4.9,83-1c3.6-45.7,0.5-101.8,0-150C552.9,336.9,515.6,340.8,491,343z M391,540
			c-6.2,10.9-4.8,25.9-5,40c-0.7,44.2-3.7,90.7-3,131c25.7,2.9,64.7,2.1,90-2c2.9-25.3,3-55,3-84c0-29.5,2.4-60-3-85
			C447.9,538.3,416.1,538.4,391,540z M495,539c-1.4,0.6-2.4,1.6-3,3c-1.8,24-1,56.1-1,85c0,29.2-2.4,58.7,3,83c25.5,1.5,60.7,2,88,1
			c1.5-51.6-1.7-115.5-5-169C555.3,535.3,521.6,540.8,495,539z"/>
		<path class="st0" d="M345,774c-3.5,1.5-7.7-4.4-12-8c-62.7-52.4-134-104-208-146c12.2-77.9,15.7-168.4,14-257
			c74.6-18.1,149.2-41.5,218-62C361.1,459.5,357.4,625.5,345,774z M339,354c0.9-6.2-3.9-8.5-9-9c-8.2-0.8-32.4,8.4-39,9
			c-1.9,38-1.5,90.7,0,132c2.5,2.8,10.6,4.3,15,2c6.6-36.3,1.4-83.1,2-123C318.4,361.3,337.5,364.3,339,354z M266,368
			c4.9-17-28.1-7.5-39-4c-2.6,33.2-0.5,80.2-1,115c21,13.7,18-15.2,18-39c0-26.6,0-46.1-1-65C251.8,372.2,263.7,376,266,368z
			 M209,370c-3.3-8.9-25.6,0-33,2c-2.1,25.5,0.8,59.7,0,86c-0.2,7.2-2.7,14.2,3,19c3.3,0,6.7,0,10,0c7.5-8.1,5-23,5-37
			c0-19.6,0.3-41.2-1-57C202.8,382.6,212.1,378.4,209,370z M173,506c-0.7,36-5.6,73-7,105c8.9,5.5,23.3,19,36,11
			c4.2-14.2-13.9-12.5-17-22c-1.7-5.2,1.4-15.6,2-23c2-24,3.3-50.1,5-72C187.8,499.6,176,500,173,506z M227,512
			c-5.5,5.4-3.6,14.5-4,22c-1.7,33.3-6,71.6-7,102c10.7,7.3,21.3,14.7,36,18c3.9-3.4,3.8-10.4,3-16c-6.1-4.9-15-7-21-12
			c2.7-36.3,7.5-75.8,7-112C237.6,511.3,231.6,510.8,227,512z M290,528c-5.7,44.9-6,95.3-10,142c13.7,9.4,29.3,21.8,46,25
			c14-20.7-17.5-25-27-35c1.9-42.4,9.2-90.1,5-132C301.8,525.1,291.5,522.8,290,528z"/>
		<path class="st0" d="M781,359c-1.1,88.2-0.3,175.8,12,253c-57.5,50.5-116.5,104.8-166,160c-12.9-146.2-18.2-309.2-13-467
			c-0.1-1.4-0.2-2.8,1-3C669.5,321.8,723.8,341.9,781,359z M624,358c5.3,4.4,15.8,3.5,22,7c-0.5,25,0,49.5,0,75
			c0,16.8-3.1,34.7,4,47c17.2,9.4,15.7-14.3,15-30c-1.5-34.2,1.4-76.3-1-103c-10.3-5-23.8-6.8-37-9C622.4,345.9,622.1,353.6,624,358
			z M682,370c2.4,4.9,12.3,2.4,16,6c-1.4,33.6-2.4,74.1,2,105c4.7,2,11.8,0.5,15-2c2.3-35.2,0.4-79.5,1-113c-7.1-5.5-18.6-6.7-30-8
			C682.4,359.4,679.2,365.4,682,370z M726,374c0.2,7.4,7,5.8,11,11c1.3,29.4-2.6,63.9,2,90c4.7,3.4,12.9,1.7,16-2
			c0.4-30,0.7-72.9-1-101C743.7,369.3,725.7,361.3,726,374z M741,502c-3.6,29.5,2.1,66.4,4,97c-8.9,1.3-17.6,19.6-4,23
			c7.1-1.6,16.7-9.3,23-15c-2.7-35-5.7-69.7-8-105C752.6,498.7,744.7,500,741,502z M699,516c1.8,37.2,4,74,8,109
			c-10.3-1.8-26.6,26.7-9,28c4,0.3,10.8-5.9,15-9c4.5-3.3,12-8.2,13-12c1-3.9-1.5-9.1-2-13c-2.6-21-3.9-50.6-5-75
			c-0.6-13,1.7-26.4-5-34C706.9,509.9,701.7,511.7,699,516z M631,682c-1,6.4,2.1,13,7,14c6.3,1.2,13.3-7.5,19-12
			c5.1-4.1,15-9.2,17-14c2.3-5.5-1.1-24.3-2-36c-2-26.7-3-50.3-4-76c-0.5-13,1.1-30.2-7-33c-6.1-2.1-12.4,4.6-14,7
			c3,42.7,5.8,85.6,8,129C650.5,668,632.6,671.8,631,682z"/>
		<path class="st1" d="M473,342c3.1,46.2,5.1,104.2,1,151c-24.6,2.3-62.9,5-85,0c-3.4-33.3,1.8-74.4,0-115c-0.5-10.9-3.7-31.8,2-36
			C415.1,337.4,447.3,341.6,473,342z M403,355c-2.3,40.3-0.3,85-1,127c19.4-0.9,39.4-1.2,60-1c0-42,0-84,0-126
			C442.3,355,422.7,355,403,355z"/>
		<path class="st1" d="M576,343c0.5,48.2,3.6,104.3,0,150c-21.9,5.9-57.1,0.9-83,1c-5.4-21.7-3-48.8-3-75c0-26.1-0.8-52.5,1-76
			C515.6,340.8,552.9,336.9,576,343z M505,355c-2.3,40-0.3,84.3-1,126c19.3,0,38.7,0,58,0c0.2-42.2-0.6-85.3,1-126
			C543.7,355,524.3,355,505,355z"/>
		<path class="st1" d="M308,365c-0.6,39.9,4.6,86.7-2,123c-4.4,2.3-12.5,0.8-15-2c-1.5-41.3-1.9-94,0-132c6.6-0.6,30.8-9.8,39-9
			c5.1,0.5,9.9,2.8,9,9C337.5,364.3,318.4,361.3,308,365z"/>
		<path class="st1" d="M627,345c13.2,2.2,26.7,4,37,9c2.4,26.7-0.5,68.8,1,103c0.7,15.7,2.2,39.4-15,30c-7.1-12.3-4-30.2-4-47
			c0-25.5-0.5-50,0-75c-6.2-3.5-16.7-2.6-22-7C622.1,353.6,622.4,345.9,627,345z"/>
		<path class="st0" d="M462,355c0,42,0,84,0,126c-20.6-0.2-40.6,0.1-60,1c0.7-42-1.3-86.7,1-127C422.7,355,442.3,355,462,355z"/>
		<path class="st0" d="M563,355c-1.6,40.7-0.8,83.8-1,126c-19.3,0-38.7,0-58,0c0.7-41.7-1.3-86,1-126C524.3,355,543.7,355,563,355z"
			/>
		<path class="st1" d="M243,375c1,18.9,1,38.4,1,65c0,23.8,3,52.7-18,39c0.5-34.8-1.6-81.8,1-115c10.9-3.5,43.9-13,39,4
			C263.7,376,251.8,372.2,243,375z"/>
		<path class="st1" d="M686,358c11.4,1.3,22.9,2.5,30,8c-0.6,33.5,1.3,77.8-1,113c-3.2,2.5-10.3,4-15,2c-4.4-30.9-3.4-71.4-2-105
			c-3.7-3.6-13.6-1.1-16-6C679.2,365.4,682.4,359.4,686,358z"/>
		<path class="st1" d="M193,383c1.3,15.8,1,37.4,1,57c0,14,2.5,28.9-5,37c-3.3,0-6.7,0-10,0c-5.7-4.8-3.2-11.8-3-19
			c0.8-26.3-2.1-60.5,0-86c7.4-2,29.7-10.9,33-2C212.1,378.4,202.8,382.6,193,383z"/>
		<path class="st1" d="M754,372c1.7,28.1,1.4,71,1,101c-3.1,3.7-11.3,5.4-16,2c-4.6-26.1-0.7-60.6-2-90c-4-5.2-10.8-3.6-11-11
			C725.7,361.3,743.7,369.3,754,372z"/>
		<path class="st1" d="M756,502c2.3,35.3,5.3,70,8,105c-6.3,5.7-15.9,13.4-23,15c-13.6-3.4-4.9-21.7,4-23c-1.9-30.6-7.6-67.5-4-97
			C744.7,500,752.6,498.7,756,502z"/>
		<path class="st1" d="M192,505c-1.7,21.9-3,48-5,72c-0.6,7.4-3.7,17.8-2,23c3.1,9.5,21.2,7.8,17,22c-12.7,8-27.1-5.5-36-11
			c1.4-32,6.3-69,7-105C176,500,187.8,499.6,192,505z"/>
		<path class="st1" d="M714,510c6.7,7.6,4.4,21,5,34c1.1,24.4,2.4,54,5,75c0.5,3.9,3,9.1,2,13c-1,3.8-8.5,8.7-13,12
			c-4.2,3.1-11,9.3-15,9c-17.6-1.3-1.3-29.8,9-28c-4-35-6.2-71.8-8-109C701.7,511.7,706.9,509.9,714,510z"/>
		<path class="st1" d="M241,514c0.5,36.2-4.3,75.7-7,112c6,5,14.9,7.1,21,12c0.8,5.6,0.9,12.6-3,16c-14.7-3.3-25.3-10.7-36-18
			c1-30.4,5.3-68.7,7-102c0.4-7.5-1.5-16.6,4-22C231.6,510.8,237.6,511.3,241,514z"/>
		<path class="st1" d="M655,661c-2.2-43.4-5-86.3-8-129c1.6-2.4,7.9-9.1,14-7c8.1,2.8,6.5,20,7,33c1,25.7,2,49.3,4,76
			c0.9,11.7,4.3,30.5,2,36c-2,4.8-11.9,9.9-17,14c-5.7,4.5-12.7,13.2-19,12c-4.9-1-8-7.6-7-14C632.6,671.8,650.5,668,655,661z"/>
		<path class="st1" d="M304,528c4.2,41.9-3.1,89.6-5,132c9.5,10,41,14.3,27,35c-16.7-3.2-32.3-15.6-46-25c4-46.7,4.3-97.1,10-142
			C291.5,522.8,301.8,525.1,304,528z"/>
		<path class="st1" d="M473,540c5.4,25,3,55.5,3,85c0,29-0.1,58.7-3,84c-25.3,4.1-64.3,4.9-90,2c-0.7-40.3,2.3-86.8,3-131
			c0.2-14.1-1.2-29.1,5-40C416.1,538.4,447.9,538.3,473,540z M401,555c0.2,48.9-3.5,93.8-5,141c20.5-2.5,43.5-2.5,66-3
			c0-46.3,0-92.7,0-139C440.7,553.3,422.4,555.7,401,555z"/>
		<path class="st1" d="M577,542c3.3,53.5,6.5,117.4,5,169c-27.3,1-62.5,0.5-88-1c-5.4-24.3-3-53.8-3-83c0-28.9-0.8-61,1-85
			c0.6-1.4,1.6-2.4,3-3C521.6,540.8,555.3,535.3,577,542z M505,554c-2.7,45.4,2.9,91.1,1,139c20.8,0.8,42.7,0.7,63,2
			c-3-46-2.9-95.1-6-141C543.3,555.8,525.7,553.7,505,554z"/>
		<path class="st0" d="M462,554c0,46.3,0,92.7,0,139c-22.5,0.5-45.5,0.5-66,3c1.5-47.2,5.2-92.1,5-141
			C422.4,555.7,440.7,553.3,462,554z"/>
		<path class="st0" d="M563,554c3.1,45.9,3,95,6,141c-20.3-1.3-42.2-1.2-63-2c1.9-47.9-3.7-93.6-1-139
			C525.7,553.7,543.3,555.8,563,554z"/>
		<path class="st0" d="M332,130c-0.6,6.6,1.7,10.3,1,17c-66,46.7-141.4,84-217,121c0.4-3.3,6.5-5.1,10-7
			C197.3,222.2,268.1,177.9,332,130z"/>
		<path class="st0" d="M640,149c1-4,1.2-8.8,1-14c3.4-1.3,14.4,10.6,18,16c45.8,40.8,91.3,82,141,119
			C745.4,234.9,689.7,192.3,640,149z"/>
		<path class="st0" d="M633,282c-0.8-4.1,1.5-5.1,1-9c42.5,20.2,85.2,40.1,130,58C721,318,674.9,299.4,633,282z"/>
		<path class="st1" d="M638,108c56.5,55.2,116.1,107.3,179,156c0.9,16.9-1.5,30.5-18,30c-0.6,12.4-0.6,22.4-1,33
			c10.9,2.8,17,14.6,13,29c-3.6,3.1-7.3,6-15,5c-2.4,77,0.4,154.7,8,228c1.1,10.7,4.8,23.9,3,31c-1.7,6.8-16.5,15.6-24,22
			c-57.1,48.6-109.4,102.5-159,157c-86.7-7-188.7-8.1-274,2c-64.4-56-134-105.7-211-153c-2.8-1.7-30-16.7-31-20
			c-1.2-3.9,2.7-18,4-28c8.7-69.1,17-157.8,11-234c-5.3-2-11.5-3.2-15-7c0.2-9.2-1.8-16.2-1-26c3.1-3.9,8.3-5.7,14-7
			c-1.5-12.6-0.7-22.5-2-36c-3.5-4.5-12.1-3.9-16-8c-1.5-7.2-2.7-14.6-3-23c18.7-14.4,40.5-24.1,61-36c50.3-29.1,99-60.3,147-96
			c7.7-5.7,21.5-18.8,28-20c9.7-1.8,20.8,4.4,30,3c7.3-1.1,19.5-10.9,28-16c27-16.4,56-37.8,80-52c-0.2,0.1,4.6-1.3,4,0
			c28.9,15.6,61.9,36.2,92,53c9.5,5.3,22.7,14.6,31,16C613.3,113.1,625.3,107.1,638,108z M478,59c-27.4,17.6-55,35-82,53
			c56.6,1.2,120.5,1.9,174,0C538.3,95.4,508.2,77.1,478,59z M346,123c-1.3,5.3,1.1,15.6,1,23c89.8,5.7,190.6,5.9,280,1
			c2.2-6.1,0.4-16.2,1-24C537.9,131.5,436.5,129.6,346,123z M126,261c-3.5,1.9-9.6,3.7-10,7c75.6-37,151-74.3,217-121
			c0.7-6.7-1.6-10.4-1-17C268.1,177.9,197.3,222.2,126,261z M800,270c-49.7-37-95.2-78.2-141-119c-3.6-5.4-14.6-17.3-18-16
			c0.2,5.2,0,10-1,14C689.7,192.3,745.4,234.9,800,270z M369,253c73.4,5.3,157.9,3,233,1c0.3-29.1,2.4-56.3,4-84
			c-79.7,4-160.9,2.8-240-1C367,193,366.6,227,369,253z M133,285c-0.1,13.4,2.1,24.6,3,37c71.3-21,141.3-43.3,208-69c4,0,8,0,12,0
			c-2.3-25.7-1.3-54.7-5-79C281.7,214.3,210.9,253.2,133,285z M615,254c20.7-2.3,34.3,9.2,51,17c39.4,18.4,78.2,35.3,117,51
			c1.8-9.6,1-21.7,3-31c-59.5-34.8-113.9-74.8-168-115C617.8,202.8,614.7,226.7,615,254z M353,271c0,3.3,0,6.7,0,10
			c67.8,0.6,162.5,2.6,228,0c15.1-0.6,46.1,5.9,39-12c-83.9,1.4-178.2,1.6-266-1C352.8,268.2,352.9,269.6,353,271z M337,272
			c-59.8,22.5-127,44.7-189,63c-8.2,2.4-22.1,2.4-25,11c74.2-15.8,147-41.7,218-64c-2-2.4,0.3-8.9-2-11
			C338.8,271.8,338.2,272.2,337,272z M764,331c-44.8-17.9-87.5-37.8-130-58c0.5,3.9-1.8,4.9-1,9C674.9,299.4,721,318,764,331z
			 M370,301c5.9,163.5-0.4,329.6-12,482c81.9-7,175.9-7.3,256-1c-13.1-152.5-18.1-320.7-14-484c-74.5,2.7-154.5,2.8-229,0
			C369.8,298.2,369.9,299.6,370,301z M357,301c-68.8,20.5-143.4,43.9-218,62c1.7,88.6-1.8,179.1-14,257c74,42,145.3,93.6,208,146
			c4.3,3.6,8.5,9.5,12,8C357.4,625.5,361.1,459.5,357,301z M615,302c-1.2,0.2-1.1,1.6-1,3c-5.2,157.8,0.1,320.8,13,467
			c49.5-55.2,108.5-109.5,166-160c-12.3-77.2-13.1-164.8-12-253C723.8,341.9,669.5,321.8,615,302z"/>
	</g>
</g>
</svg>
